HIERARCHY
ROOT Hips
{
	OFFSET 0.000000 121.760803 0.000000
	CHANNELS 6 Xposition Yposition Zposition Xrotation Yrotation Zrotation 
	JOINT Spine
	{
		OFFSET 0.072000 7.257294 -0.789700
		CHANNELS 3 Xrotation Yrotation Zrotation
		JOINT Spine1
		{
			OFFSET 0.000000 12.508769 -0.658067
			CHANNELS 3 Xrotation Yrotation Zrotation
			JOINT Spine1_split
			{
				OFFSET 0.000000 12.508769 -0.658067
				CHANNELS 3 Xrotation Yrotation Zrotation
				JOINT Spine2
				{
					OFFSET 0.000000 12.508769 -0.658067
					CHANNELS 3 Xrotation Yrotation Zrotation
					JOINT Neck
					{
						OFFSET 0.000000 14.033295 7.520400
						CHANNELS 3 Xrotation Yrotation Zrotation
						JOINT Head
						{
							OFFSET 0.000000 8.198502 5.703100
							CHANNELS 3 Xrotation Yrotation Zrotation
							JOINT HeadTop_End
							{
								OFFSET 0.000000 17.760803 13.332701
								CHANNELS 3 Xrotation Yrotation Zrotation
								End Site
								{
									OFFSET 0.000000 0.000000 0.000000
								}
							}
						}
					}
					JOINT LeftShoulder
					{
						OFFSET 6.292450 5.785301 -0.669000
						CHANNELS 3 Xrotation Yrotation Zrotation
						JOINT LeftShoulder_split
						{
							OFFSET 6.292450 5.785301 -0.669000
							CHANNELS 3 Xrotation Yrotation Zrotation
							JOINT LeftArm
							{
								OFFSET 13.907140 -6.093903 1.965100
								CHANNELS 3 Xrotation Yrotation Zrotation
								JOINT LeftForeArm
								{
									OFFSET 34.140198 0.000000 0.000000
									CHANNELS 3 Xrotation Yrotation Zrotation
									JOINT LeftHand
									{
										OFFSET 40.960209 0.000000 0.000000
										CHANNELS 3 Xrotation Yrotation Zrotation
										JOINT LeftHandThumb1
										{
											OFFSET 10.006996 -7.170425 9.573125
											CHANNELS 3 Xrotation Yrotation Zrotation
											JOINT LeftHandThumb2
											{
												OFFSET 1.835007 -1.059448 1.059443
												CHANNELS 3 Xrotation Yrotation Zrotation
												JOINT LeftHandThumb3
												{
													OFFSET 2.112267 -1.219513 1.219518
													CHANNELS 3 Xrotation Yrotation Zrotation
													JOINT LeftHandThumb4
													{
														OFFSET 4.843811 -2.796570 2.796576
														CHANNELS 3 Xrotation Yrotation Zrotation
														End Site
														{
															OFFSET 0.000000 0.000000 0.000000
														}
													}
												}
											}
										}
										JOINT LeftHandIndex1
										{
											OFFSET 18.389847 -0.922348 4.596882
											CHANNELS 3 Xrotation Yrotation Zrotation
											JOINT LeftHandIndex2
											{
												OFFSET 4.711273 0.000000 0.000000
												CHANNELS 3 Xrotation Yrotation Zrotation
												JOINT LeftHandIndex3
												{
													OFFSET 2.886131 0.000000 0.000000
													CHANNELS 3 Xrotation Yrotation Zrotation
													JOINT LeftHandIndex4
													{
														OFFSET 6.145912 0.000000 0.000000
														CHANNELS 3 Xrotation Yrotation Zrotation
														End Site
														{
															OFFSET 0.000000 0.000000 0.000000
														}
													}
												}
											}
										}
										JOINT LeftHandMiddle1
										{
											OFFSET 18.013008 0.000000 0.000000
											CHANNELS 3 Xrotation Yrotation Zrotation
											JOINT LeftHandMiddle2
											{
												OFFSET 4.946693 0.000000 0.000000
												CHANNELS 3 Xrotation Yrotation Zrotation
												JOINT LeftHandMiddle3
												{
													OFFSET 3.342232 0.000000 0.000000
													CHANNELS 3 Xrotation Yrotation Zrotation
													JOINT LeftHandMiddle4
													{
														OFFSET 4.461754 0.000000 0.000000
														CHANNELS 3 Xrotation Yrotation Zrotation
														End Site
														{
															OFFSET 0.000000 0.000000 0.000000
														}
													}
												}
											}
										}
										JOINT LeftHandRing1
										{
											OFFSET 15.849892 -0.102921 -4.126150
											CHANNELS 3 Xrotation Yrotation Zrotation
											JOINT LeftHandRing2
											{
												OFFSET 3.527054 0.000000 0.000000
												CHANNELS 3 Xrotation Yrotation Zrotation
												JOINT LeftHandRing3
												{
													OFFSET 2.961098 0.000000 0.000000
													CHANNELS 3 Xrotation Yrotation Zrotation
													JOINT LeftHandRing4
													{
														OFFSET 4.927200 0.000000 0.000000
														CHANNELS 3 Xrotation Yrotation Zrotation
														End Site
														{
															OFFSET 0.000000 0.000000 0.000000
														}
													}
												}
											}
										}
										JOINT LeftHandPinky1
										{
											OFFSET 12.791824 -0.832031 -6.799156
											CHANNELS 3 Xrotation Yrotation Zrotation
											JOINT LeftHandPinky2
											{
												OFFSET 3.327133 0.000000 0.000000
												CHANNELS 3 Xrotation Yrotation Zrotation
												JOINT LeftHandPinky3
												{
													OFFSET 3.014900 0.000000 0.000000
													CHANNELS 3 Xrotation Yrotation Zrotation
													JOINT LeftHandPinky4
													{
														OFFSET 5.847786 0.000000 0.000000
														CHANNELS 3 Xrotation Yrotation Zrotation
														End Site
														{
															OFFSET 0.000000 0.000000 0.000000
														}
													}
												}
											}
										}
									}
								}
							}
						}
					}
					JOINT RightShoulder
					{
						OFFSET -6.292450 5.785301 -0.669000
						CHANNELS 3 Xrotation Yrotation Zrotation
						JOINT RightShoulder_split
						{
							OFFSET -6.292450 5.785301 -0.669000
							CHANNELS 3 Xrotation Yrotation Zrotation
							JOINT RightArm
							{
								OFFSET -13.907140 -6.093903 1.965100
								CHANNELS 3 Xrotation Yrotation Zrotation
								JOINT RightForeArm
								{
									OFFSET -34.140198 0.000000 0.000000
									CHANNELS 3 Xrotation Yrotation Zrotation
									JOINT RightHand
									{
										OFFSET -40.960209 0.000000 0.000000
										CHANNELS 3 Xrotation Yrotation Zrotation
										JOINT RightHandThumb1
										{
											OFFSET -10.007050 -7.170456 9.573117
											CHANNELS 3 Xrotation Yrotation Zrotation
											JOINT RightHandThumb2
											{
												OFFSET -1.835007 -1.059448 1.059443
												CHANNELS 3 Xrotation Yrotation Zrotation
												JOINT RightHandThumb3
												{
													OFFSET -2.112267 -1.219513 1.219518
													CHANNELS 3 Xrotation Yrotation Zrotation
													JOINT RightHandThumb4
													{
														OFFSET -4.843834 -2.796585 2.796590
														CHANNELS 3 Xrotation Yrotation Zrotation
														End Site
														{
															OFFSET 0.000000 0.000000 0.000000
														}
													}
												}
											}
										}
										JOINT RightHandIndex1
										{
											OFFSET -18.389870 -0.922424 4.596786
											CHANNELS 3 Xrotation Yrotation Zrotation
											JOINT RightHandIndex2
											{
												OFFSET -4.711273 0.000000 0.000000
												CHANNELS 3 Xrotation Yrotation Zrotation
												JOINT RightHandIndex3
												{
													OFFSET -2.886131 0.000000 0.000000
													CHANNELS 3 Xrotation Yrotation Zrotation
													JOINT RightHandIndex4
													{
														OFFSET -6.145920 0.000000 0.000000
														CHANNELS 3 Xrotation Yrotation Zrotation
														End Site
														{
															OFFSET 0.000000 0.000000 0.000000
														}
													}
												}
											}
										}
										JOINT RightHandMiddle1
										{
											OFFSET -18.013008 0.000000 0.000000
											CHANNELS 3 Xrotation Yrotation Zrotation
											JOINT RightHandMiddle2
											{
												OFFSET -4.946693 0.000000 0.000000
												CHANNELS 3 Xrotation Yrotation Zrotation
												JOINT RightHandMiddle3
												{
													OFFSET -3.342232 0.000000 0.000000
													CHANNELS 3 Xrotation Yrotation Zrotation
													JOINT RightHandMiddle4
													{
														OFFSET -4.461754 0.000000 0.000000
														CHANNELS 3 Xrotation Yrotation Zrotation
														End Site
														{
															OFFSET 0.000000 0.000000 0.000000
														}
													}
												}
											}
										}
										JOINT RightHandRing1
										{
											OFFSET -15.849876 -0.102936 -4.126237
											CHANNELS 3 Xrotation Yrotation Zrotation
											JOINT RightHandRing2
											{
												OFFSET -3.527054 0.000000 0.000000
												CHANNELS 3 Xrotation Yrotation Zrotation
												JOINT RightHandRing3
												{
													OFFSET -2.961098 0.000000 0.000000
													CHANNELS 3 Xrotation Yrotation Zrotation
													JOINT RightHandRing4
													{
														OFFSET -4.927200 0.000000 0.000000
														CHANNELS 3 Xrotation Yrotation Zrotation
														End Site
														{
															OFFSET 0.000000 0.000000 0.000000
														}
													}
												}
											}
										}
										JOINT RightHandPinky1
										{
											OFFSET -12.791786 -0.832077 -6.799222
											CHANNELS 3 Xrotation Yrotation Zrotation
											JOINT RightHandPinky2
											{
												OFFSET -3.327133 0.000000 0.000000
												CHANNELS 3 Xrotation Yrotation Zrotation
												JOINT RightHandPinky3
												{
													OFFSET -3.014900 0.000000 0.000000
													CHANNELS 3 Xrotation Yrotation Zrotation
													JOINT RightHandPinky4
													{
														OFFSET -5.847786 0.000000 0.000000
														CHANNELS 3 Xrotation Yrotation Zrotation
														End Site
														{
															OFFSET 0.000000 0.000000 0.000000
														}
													}
												}
											}
										}
									}
								}
							}
						}
					}
				}
			}
		}
	}
	JOINT LeftUpLeg
	{
		OFFSET 13.026900 -6.336304 -1.092800
		CHANNELS 3 Xrotation Yrotation Zrotation
		JOINT LeftLeg
		{
			OFFSET 0.524474 -46.096886 9.782700
			CHANNELS 3 Xrotation Yrotation Zrotation
			JOINT LeftFoot
			{
				OFFSET -0.524474 -53.427422 -12.948200
				CHANNELS 3 Xrotation Yrotation Zrotation
				JOINT LeftToeBase
				{
					OFFSET 0.192200 -14.009700 16.364100
					CHANNELS 3 Xrotation Yrotation Zrotation
					JOINT LeftToe_End
					{
						OFFSET -1.784700 -0.561700 9.474800
						CHANNELS 3 Xrotation Yrotation Zrotation
						End Site
						{
							OFFSET 0.000000 0.000000 0.000000
						}
					}
				}
			}
		}
	}
	JOINT RightUpLeg
	{
		OFFSET -12.883000 -6.336304 -1.092800
		CHANNELS 3 Xrotation Yrotation Zrotation
		JOINT RightLeg
		{
			OFFSET -0.524587 -46.096825 9.782800
			CHANNELS 3 Xrotation Yrotation Zrotation
			JOINT RightFoot
			{
				OFFSET 0.524587 -53.427383 -12.948300
				CHANNELS 3 Xrotation Yrotation Zrotation
				JOINT RightToeBase
				{
					OFFSET -0.192200 -14.009700 16.364100
					CHANNELS 3 Xrotation Yrotation Zrotation
					JOINT RightToe_End
					{
						OFFSET 1.784700 -0.561700 9.474800
						CHANNELS 3 Xrotation Yrotation Zrotation
						End Site
						{
							OFFSET 0.000000 0.000000 0.000000
						}
					}
				}
			}
		}
	}
}
MOTION
Frames: 4
Frame Time: 0.016667
0.307042 119.257881 1.075410 -3.751741 -5.199260 -4.118662 3.286184 1.551418 3.095973 1.151563 0.341256 1.563088 0.000000 0.000000 0.000000 1.124399 0.369601 1.558065 5.626310 -0.076129 0.454683 -7.563349 1.377077 -0.080249 -0.000000 0.000000 0.000000 1.046817 -17.441248 -12.316055 0.000000 0.000000 0.000000 3.916269 -19.989257 -69.765219 -0.000005 -1.459364 0.000004 -33.230411 -1.364818 -6.186628 -0.663005 2.160317 4.832501 11.845378 25.425973 17.060293 -13.814329 3.531931 9.046584 0.000001 -0.000001 0.000002 0.019862 -0.969580 -7.593533 0.267779 1.752584 -17.372564 0.057677 0.820914 -8.037621 -0.000000 -0.000000 0.000001 -0.076311 2.665780 -15.696835 0.268786 1.755803 -17.405518 0.300523 1.853974 -18.413352 -0.000000 -0.000001 -0.000002 0.136904 3.641772 -21.133515 0.386301 2.093948 -20.903126 0.282656 1.799440 -17.852709 -0.000000 0.000000 -0.000002 0.917888 5.560952 -27.127216 0.268797 1.755855 -17.405958 0.241815 1.667379 -16.502639 0.000000 0.000000 -0.000001 1.209146 15.345162 14.705933 0.000000 0.000000 0.000000 13.158867 27.555131 58.785157 -0.000005 6.693737 -0.000005 -20.179089 -0.514099 6.782821 -1.665255 -0.174478 -4.219037 12.710937 -29.825343 -16.130948 -15.549409 -3.559416 -12.707138 0.000001 0.000001 0.000002 0.037225 1.273352 6.824645 0.213727 -1.396028 17.407029 0.046033 -0.653853 8.053209 -0.000001 -0.000001 -0.000000 -0.136230 -2.205105 14.998891 0.214451 -1.398345 17.436872 0.239772 -1.476537 18.446266 -0.000000 -0.000002 0.000000 0.030600 -3.075762 20.451039 0.308451 -1.668294 20.948506 0.225825 -1.434040 17.897100 0.000002 -0.000000 -0.000000 0.756727 -4.881344 26.474348 0.214455 -1.398382 17.437241 0.193016 -1.328188 16.535833 -0.000001 -0.000000 0.000002 -10.762731 14.619376 11.132150 11.402506 1.991415 4.040396 1.948523 0.452120 -7.422265 -4.940038 -0.000003 -0.000001 0.000000 -0.000001 -0.000000 1.477239 -10.322564 3.026401 7.029857 -9.404582 -3.185307 -3.892488 -2.006228 4.130755 -7.282874 -0.000001 0.000001 -0.000000 0.000000 -0.000000 
0.315084 119.245583 1.063362 -3.773179 -5.344273 -4.164873 3.285852 1.551054 3.108293 1.151563 0.341255 1.563088 0.000000 0.000000 0.000000 1.124399 0.369602 1.558065 5.641319 -0.076130 0.444039 -7.562832 1.382773 -0.108851 -0.000000 -0.000000 0.000000 1.048149 -17.435434 -12.315655 0.000000 0.000000 0.000000 3.889512 -20.129821 -69.771004 0.000000 -1.500347 -0.000004 -33.176476 -1.403259 -6.179767 -0.731337 2.210474 4.906264 11.849532 25.426134 17.046977 -13.814331 3.531926 9.046598 -0.000000 -0.000000 -0.000005 0.037644 -0.954840 -7.569165 0.267777 1.752583 -17.372581 0.057672 0.820918 -8.037615 -0.000000 -0.000000 0.000001 -0.085751 2.628825 -15.661573 0.268445 1.754724 -17.394431 0.300174 1.852927 -18.402502 -0.000000 0.000002 -0.000001 0.132375 3.630374 -21.141415 0.386300 2.093951 -20.903126 0.282656 1.799434 -17.852713 0.000001 -0.000000 0.000002 0.910056 5.545740 -27.128202 0.268798 1.755851 -17.405979 0.241815 1.667383 -16.502628 0.000000 -0.000001 -0.000002 1.208449 15.358338 14.695772 0.000000 0.000000 0.000000 13.135316 27.547101 58.785130 -0.000002 6.665723 -0.000002 -20.179205 -0.509181 6.769486 -1.578897 0.146356 -3.611996 12.359111 -29.465945 -16.752506 -15.196329 -6.264807 -13.853272 0.000000 0.000001 0.000003 0.071391 1.294369 6.594611 0.207546 -1.376195 17.151838 0.044792 -0.644982 7.943266 0.000002 -0.000002 -0.000001 -0.135840 -2.183629 14.745345 0.208860 -1.380423 17.206143 0.238469 -1.472622 18.395755 -0.000001 0.000002 0.000001 0.029727 -3.067578 20.320429 0.308034 -1.667211 20.934494 0.225496 -1.433045 17.884101 0.000000 -0.000002 0.000000 0.766588 -4.905937 26.265078 0.214453 -1.398372 17.437239 0.193010 -1.328193 16.535821 0.000000 0.000003 0.000000 -10.776076 14.621167 11.218510 11.486692 2.118988 4.014129 1.885218 0.453707 -7.423312 -4.940029 -0.000008 -0.000000 0.000000 -0.000000 -0.000000 1.459636 -10.329939 3.126771 7.050362 -9.056454 -3.249538 -3.873092 -2.208547 4.094765 -7.282873 0.000009 0.000001 -0.000001 0.000002 0.000000 
0.321267 119.224846 1.052758 -3.796247 -5.494886 -4.204505 3.285696 1.550665 3.114059 1.151563 0.341255 1.563089 0.000000 0.000000 0.000000 1.124400 0.369602 1.558065 5.658001 -0.073426 0.433887 -7.562017 1.396771 -0.134892 0.000000 0.000000 0.000000 1.049202 -17.430822 -12.315340 0.000000 0.000000 0.000000 3.861913 -20.202545 -69.781338 -0.000003 -1.523124 -0.000009 -33.149558 -1.438195 -6.183269 -0.802499 2.237496 4.968525 11.855480 25.426378 17.027950 -13.814333 3.531920 9.046609 -0.000001 0.000000 0.000003 0.044156 -0.951276 -7.556537 0.267774 1.752585 -17.372578 0.057680 0.820917 -8.037619 -0.000001 -0.000000 0.000000 -0.094897 2.594727 -15.647837 0.268341 1.754385 -17.391005 0.300072 1.852614 -18.399295 -0.000000 0.000001 0.000002 0.130831 3.627158 -21.159299 0.386300 2.093948 -20.903116 0.282655 1.799436 -17.852707 0.000000 0.000001 0.000001 0.906108 5.538025 -27.130992 0.268800 1.755854 -17.405972 0.241816 1.667378 -16.502642 -0.000000 -0.000001 0.000001 1.206564 15.367490 14.694090 0.000000 0.000000 0.000000 13.125049 27.554849 58.770759 -0.000003 6.622052 0.000003 -20.182828 -0.523830 6.785134 -1.413007 0.635818 -2.930310 11.971218 -29.040192 -17.421521 -14.788287 -9.187068 -14.782833 0.000000 -0.000003 -0.000003 0.104999 1.310485 6.427150 0.200376 -1.352752 16.850823 0.043782 -0.637810 7.854463 0.000001 0.000000 -0.000000 -0.135436 -2.165790 14.534649 0.201554 -1.356606 16.900302 0.236564 -1.466900 18.321690 -0.000000 0.000001 -0.000003 0.033620 -3.072507 20.193220 0.307457 -1.665702 20.914596 0.225017 -1.431562 17.865058 0.000001 -0.000001 0.000000 0.776735 -4.930055 26.118689 0.214825 -1.399545 17.452353 0.193360 -1.329360 16.550884 0.000001 0.000001 -0.000002 -10.796806 14.622656 11.302362 11.593926 2.251504 3.988308 1.807762 0.456219 -7.427837 -4.940033 -0.000003 -0.000001 0.000000 0.000001 -0.000000 1.420589 -10.330260 3.214311 7.111718 -8.726114 -3.311918 -3.872698 -2.400197 4.063265 -7.282872 0.000002 0.000000 -0.000000 -0.000002 -0.000000 
0.326769 119.202446 1.044524 -3.820666 -5.650604 -4.245164 3.285533 1.550221 3.120343 1.151564 0.341256 1.563089 0.000000 0.000000 0.000000 1.124400 0.369601 1.558066 5.675497 -0.070796 0.424323 -7.560890 1.416646 -0.159048 0.000000 -0.000000 -0.000000 1.050082 -17.426982 -12.315073 0.000000 0.000000 0.000000 3.834566 -20.228947 -69.793912 -0.000009 -1.533926 -0.000011 -33.143278 -1.469031 -6.193462 -0.859824 2.255365 5.016256 11.860751 25.426602 17.011037 -13.814332 3.531925 9.046588 0.000001 0.000003 -0.000001 0.045884 -0.951696 -7.554042 0.267777 1.752585 -17.372567 0.057675 0.820915 -8.037627 -0.000001 -0.000000 0.000001 -0.102331 2.568137 -15.649398 0.268289 1.754226 -17.389400 0.300022 1.852467 -18.397763 -0.000000 0.000000 0.000001 0.131289 3.629443 -21.184115 0.386300 2.093952 -20.903092 0.282659 1.799441 -17.852726 0.000000 0.000001 0.000002 0.904504 5.534723 -27.140445 0.268796 1.755850 -17.405993 0.241814 1.667382 -16.502632 0.000000 -0.000000 0.000001 1.203737 15.373914 14.698709 0.000000 0.000000 0.000000 13.129134 27.577816 58.738083 0.000001 6.568085 -0.000008 -20.190177 -0.555375 6.822986 -1.186847 1.249702 -2.178578 11.554255 -28.561305 -18.150394 -14.356781 -12.250600 -15.529921 0.000002 0.000000 0.000001 0.135006 1.320353 6.337453 0.192942 -1.327968 16.533016 0.043089 -0.632742 7.791515 0.000001 0.000001 0.000000 -0.135126 -2.153222 14.386340 0.193476 -1.329771 16.555955 0.234538 -1.460742 18.242057 0.000000 0.000001 0.000000 0.040893 -3.088794 20.111063 0.307197 -1.665015 20.905590 0.224814 -1.430916 17.856742 0.000000 -0.000000 -0.000002 0.784873 -4.944859 26.073431 0.215505 -1.401715 17.480071 0.193999 -1.331521 16.578572 -0.000001 -0.000001 -0.000005 -10.816939 14.625279 11.389366 11.706471 2.387491 3.961653 1.724811 0.458715 -7.434919 -4.940027 -0.000003 0.000002 0.000000 -0.000000 -0.000000 1.380753 -10.330733 3.301919 7.179827 -8.387901 -3.372277 -3.876256 -2.592880 4.029781 -7.282874 0.000008 -0.000001 -0.000000 -0.000001 -0.000000 
